<svg id="Layer_1" data-name="Layer 1" xmlns="http://www.w3.org/2000/svg" viewBox="0 0 500 500"><defs><style>.cls-1{fill:#ffc612;}.cls-2{fill:none;stroke:#000;stroke-linecap:round;stroke-linejoin:round;stroke-width:15px;}.cls-3{fill:#d82f23;}</style></defs><title>physics</title><path class="cls-1" d="M334.53,203.94c-12-8.95-24.61-17.76-37.86-26.3C281,167.55,265.4,158.36,250,150.13c-15.4,8.23-31,17.42-46.67,27.51-13.24,8.54-25.89,17.34-37.86,26.29-1,14.91-1.58,30.31-1.58,46.07s.55,31.15,1.58,46.06c12,8.95,24.62,17.76,37.86,26.3C219,332.45,234.61,341.63,250,349.87c15.4-8.24,31-17.42,46.67-27.51,13.24-8.54,25.89-17.35,37.86-26.3,1-14.91,1.58-30.3,1.58-46.06S335.56,218.85,334.53,203.94Z"/><circle class="cls-1" cx="65.15" cy="303.49" r="22.95"/><circle class="cls-1" cx="374.68" cy="395.87" r="22.95"/><circle class="cls-1" cx="304.52" cy="61.96" r="22.95"/><circle class="cls-2" cx="65.15" cy="303.49" r="22.95"/><circle class="cls-2" cx="304.52" cy="61.96" r="22.95"/><circle class="cls-3" cx="250" cy="250" r="33.58"/><path class="cls-2" d="M312.3,83.55c14.75,43.28,23.81,101.9,23.81,166.45,0,133.17-38.55,241.13-86.11,241.13s-86.11-108-86.11-241.13S202.44,8.87,250,8.87c15.86,0,30.72,12,43.49,33"/><path class="cls-2" d="M78.69,285c28.44-35.06,71.86-73.27,124.64-107.32,111.9-72.19,223.52-98.31,249.3-58.35s-44.05,130.88-156,203.07S73.15,420.67,47.37,380.71c-9-14-6.34-34.2,5.76-57.68"/><path class="cls-2" d="M397.38,399.22c26.54,1.41,46.19-4.47,55.25-18.51,25.78-40-44.05-130.88-156-203.07S73.15,79.33,47.37,119.29s44.05,130.88,156,203.07c52.47,33.85,104.88,57.57,148.41,69.1"/><circle class="cls-2" cx="250" cy="250" r="33.58"/><circle class="cls-2" cx="374.68" cy="395.87" r="22.95"/></svg>